<?xml version="1.0" standalone="no"?>
<!DOCTYPE svg PUBLIC "-//W3C//DTD SVG 20010904//EN"
 "http://www.w3.org/TR/2001/REC-SVG-20010904/DTD/svg10.dtd">
<svg version="1.0" xmlns="http://www.w3.org/2000/svg"
 width="400.000000pt" height="400.000000pt" viewBox="0 0 400.000000 400.000000"
 preserveAspectRatio="xMidYMid meet">
<metadata>
Created by potrace 1.11, written by Peter Selinger 2001-2013
</metadata>
<g transform="translate(0.000000,400.000000) scale(0.100000,-0.100000)"
fill="#000000" stroke="none">
<path d="M290 2005 c0 -1009 0 -1838 0 -1842 0 -5 131 -8 290 -8 l290 0 0 787
0 788 168 0 168 0 28 -96 c131 -467 515 -815 1004 -911 128 -25 346 -22 479 6
334 70 627 265 808 536 152 230 219 449 218 720 -1 336 -118 630 -347 872
-428 453 -1119 533 -1634 190 -238 -158 -413 -383 -507 -650 l-28 -77 -176 2
-176 3 -2 463 -2 462 439 0 440 0 0 295 0 295 -730 0 -730 0 0 -1835z m1390
1550 c0 -118 -3 -215 -8 -215 -4 0 -63 56 -132 125 l-125 125 -425 0 -425 0
-85 76 c-47 41 -92 82 -100 90 -12 12 73 14 643 14 l657 0 0 -215z m-880 -766
l0 -539 206 0 207 0 -7 -32 c-4 -18 -9 -59 -13 -90 l-6 -58 -283 0 -284 0 0
711 0 711 90 -82 90 -82 0 -539z m1156 -556 c28 -161 54 -296 57 -300 17 -16
27 27 71 287 26 151 49 283 52 293 4 13 16 17 55 17 l49 0 0 -550 0 -550 -50
0 -50 0 -2 198 c-2 123 -7 196 -13 196 -5 -1 -30 -50 -54 -108 -24 -58 -47
-106 -50 -106 -4 0 -27 48 -51 106 -25 59 -49 106 -55 105 -6 -1 -11 -75 -13
-196 l-2 -195 -45 0 -45 0 0 551 0 550 47 -3 48 -3 51 -292z m636 -32 c48
-178 90 -326 93 -329 3 -3 5 144 5 326 l0 332 50 0 50 0 0 -550 0 -550 -50 0
-49 0 -15 53 c-9 28 -50 178 -92 332 -42 154 -78 282 -80 284 -2 2 -4 -147 -4
-332 l0 -337 -50 0 -50 0 0 551 0 550 52 -3 52 -3 88 -324z m420 -178 l3 -508
80 -1 80 -1 3 -42 3 -41 -130 0 -131 0 0 550 0 550 45 0 45 0 2 -507z m-2212
-1043 l0 -755 -90 90 -90 90 0 755 0 755 90 -90 90 -90 0 -755z"/>
</g>
</svg>
